# xmcd
#
# Track frame offsets:
#	150
#	12215
#	26712
#	42910
#	58262
#	71417
#	81465
#	92237
#	105217
#	119180
#	131740
#	149755
#	162270
#	174372
#	185942
#	203702
#	220147
#	230830
#
# Disc length: 3296
#
# Revision: 1
# Processed by: cddbd v1.5.1PL0 Copyright (c) Steve Scherf et al.
# Submitted via: EasyCDDAExtractor 5.0.2.1
# Normalized: r0:DSETVAR1
#
DISCID=140cde12
DTITLE=Various Artist - Country CD 1
DYEAR=2001
DGENRE=Country
TTITLE0=Dolly Parton - Jolene
TTITLE1=Glen Campbell - Rhinestone Cowboy
TTITLE2=Billy Jo Spears - Blanket On The Ground
TTITLE3=George Hamilton IV - Canadian Pacific
TTITLE4=Crystal Gayle - Talking In Your Sleep
TTITLE5=Charley Pride - Is Anyone Going To San Antone
TTITLE6=Slim Whitman - Rose Marie
TTITLE7=Willie Nelson - Crazy
TTITLE8=Juice Newton - All I Have To Do Is Dream
TTITLE9=Bobby Bare - Shame On Me
TTITLE10=Dottie West - Hey Mr Dream Maker
TTITLE11=Faron Young - Sweet Dreams
TTITLE12=Wanda Jackson - Stand By Your Man
TTITLE13=Linda Davis - Do I Do It To You
TTITLE14=Ronnie Milsap - She Keeps The Home Fires Burning
TTITLE15=Vince Gill - Oklahoma Borderline
TTITLE16=Floyd Kramer - San Antonio Rose
TTITLE17=Keith Whitley - When You Say Nothing At All
EXTD=
EXTT0=
EXTT1=
EXTT2=
EXTT3=
EXTT4=
EXTT5=
EXTT6=
EXTT7=
EXTT8=
EXTT9=
EXTT10=
EXTT11=
EXTT12=
EXTT13=
EXTT14=
EXTT15=
EXTT16=
EXTT17=
PLAYORDER=
